<svg xmlns="http://www.w3.org/2000/svg" xmlns:xlink="http://www.w3.org/1999/xlink" width="500" zoomAndPan="magnify" viewBox="0 0 375 374.999991" height="500" preserveAspectRatio="xMidYMid meet" version="1.0"><defs><g/><clipPath id="735734405c"><path d="M 112 91 L 293.96875 91 L 293.96875 190 L 112 190 Z M 112 91 " clip-rule="nonzero"/></clipPath><clipPath id="3cff32b6ed"><path d="M 208 107 L 230 107 L 230 127 L 208 127 Z M 208 107 " clip-rule="nonzero"/></clipPath><clipPath id="9589a4073d"><path d="M 210.796875 105.277344 L 230.921875 111.277344 L 225.777344 128.527344 L 205.652344 122.527344 Z M 210.796875 105.277344 " clip-rule="nonzero"/></clipPath><clipPath id="c3ce7c0f1a"><path d="M 210.796875 105.277344 L 230.921875 111.277344 L 211.855469 175.246094 L 191.730469 169.25 Z M 210.796875 105.277344 " clip-rule="nonzero"/></clipPath><clipPath id="b6a9e3ecab"><path d="M 210.808594 105.28125 L 230.59375 111.179688 L 225 129.941406 L 205.21875 124.042969 Z M 210.808594 105.28125 " clip-rule="nonzero"/></clipPath><clipPath id="2d09d97e0f"><path d="M 61 134 L 97 134 L 97 177 L 61 177 Z M 61 134 " clip-rule="nonzero"/></clipPath><clipPath id="298aff407a"><path d="M 67.050781 124.511719 L 100.277344 130.425781 L 91.472656 179.894531 L 58.246094 173.984375 Z M 67.050781 124.511719 " clip-rule="nonzero"/></clipPath><clipPath id="b3934f8c58"><path d="M 67.050781 124.511719 L 100.277344 130.425781 L 91.472656 179.894531 L 58.246094 173.984375 Z M 67.050781 124.511719 " clip-rule="nonzero"/></clipPath><clipPath id="f0f06bea6b"><path d="M 67.050781 124.511719 L 100.277344 130.425781 L 91.472656 179.894531 L 58.246094 173.984375 Z M 67.050781 124.511719 " clip-rule="nonzero"/></clipPath><clipPath id="1ee89641ea"><path d="M 86 137 L 93 137 L 93 143 L 86 143 Z M 86 137 " clip-rule="nonzero"/></clipPath><clipPath id="ffcc9ef600"><path d="M 67.050781 124.511719 L 100.277344 130.425781 L 91.472656 179.894531 L 58.246094 173.984375 Z M 67.050781 124.511719 " clip-rule="nonzero"/></clipPath><clipPath id="8cb9d11b1c"><path d="M 67.050781 124.511719 L 100.277344 130.425781 L 91.472656 179.894531 L 58.246094 173.984375 Z M 67.050781 124.511719 " clip-rule="nonzero"/></clipPath><clipPath id="2692e5259c"><path d="M 67.050781 124.511719 L 100.277344 130.425781 L 91.472656 179.894531 L 58.246094 173.984375 Z M 67.050781 124.511719 " clip-rule="nonzero"/></clipPath><clipPath id="f94fc874cb"><path d="M 87 138 L 92 138 L 92 142 L 87 142 Z M 87 138 " clip-rule="nonzero"/></clipPath><clipPath id="81f2c874f3"><path d="M 67.050781 124.511719 L 100.277344 130.425781 L 91.472656 179.894531 L 58.246094 173.984375 Z M 67.050781 124.511719 " clip-rule="nonzero"/></clipPath><clipPath id="fcea522480"><path d="M 67.050781 124.511719 L 100.277344 130.425781 L 91.472656 179.894531 L 58.246094 173.984375 Z M 67.050781 124.511719 " clip-rule="nonzero"/></clipPath><clipPath id="f978df9bd4"><path d="M 67.050781 124.511719 L 100.277344 130.425781 L 91.472656 179.894531 L 58.246094 173.984375 Z M 67.050781 124.511719 " clip-rule="nonzero"/></clipPath><clipPath id="d201cf9ed2"><path d="M 85 135 L 93 135 L 93 139 L 85 139 Z M 85 135 " clip-rule="nonzero"/></clipPath><clipPath id="14aa576331"><path d="M 67.050781 124.511719 L 100.277344 130.425781 L 91.472656 179.894531 L 58.246094 173.984375 Z M 67.050781 124.511719 " clip-rule="nonzero"/></clipPath><clipPath id="d7ff50ad4b"><path d="M 67.050781 124.511719 L 100.277344 130.425781 L 91.472656 179.894531 L 58.246094 173.984375 Z M 67.050781 124.511719 " clip-rule="nonzero"/></clipPath><clipPath id="9779ddcf0f"><path d="M 67.050781 124.511719 L 100.277344 130.425781 L 91.472656 179.894531 L 58.246094 173.984375 Z M 67.050781 124.511719 " clip-rule="nonzero"/></clipPath><clipPath id="a3559e7107"><path d="M 86 136 L 92 136 L 92 138 L 86 138 Z M 86 136 " clip-rule="nonzero"/></clipPath><clipPath id="7826db9d51"><path d="M 67.050781 124.511719 L 100.277344 130.425781 L 91.472656 179.894531 L 58.246094 173.984375 Z M 67.050781 124.511719 " clip-rule="nonzero"/></clipPath><clipPath id="94404ddc77"><path d="M 67.050781 124.511719 L 100.277344 130.425781 L 91.472656 179.894531 L 58.246094 173.984375 Z M 67.050781 124.511719 " clip-rule="nonzero"/></clipPath><clipPath id="c66d143848"><path d="M 67.050781 124.511719 L 100.277344 130.425781 L 91.472656 179.894531 L 58.246094 173.984375 Z M 67.050781 124.511719 " clip-rule="nonzero"/></clipPath><clipPath id="69fa12583f"><path d="M 87 131 L 93 131 L 93 138 L 87 138 Z M 87 131 " clip-rule="nonzero"/></clipPath><clipPath id="cac70b2009"><path d="M 67.050781 124.511719 L 100.277344 130.425781 L 91.472656 179.894531 L 58.246094 173.984375 Z M 67.050781 124.511719 " clip-rule="nonzero"/></clipPath><clipPath id="447a4f9e5a"><path d="M 67.050781 124.511719 L 100.277344 130.425781 L 91.472656 179.894531 L 58.246094 173.984375 Z M 67.050781 124.511719 " clip-rule="nonzero"/></clipPath><clipPath id="d7babf4b7b"><path d="M 67.050781 124.511719 L 100.277344 130.425781 L 91.472656 179.894531 L 58.246094 173.984375 Z M 67.050781 124.511719 " clip-rule="nonzero"/></clipPath><clipPath id="df700bb701"><path d="M 88 132 L 92 132 L 92 137 L 88 137 Z M 88 132 " clip-rule="nonzero"/></clipPath><clipPath id="26e7a9ce6c"><path d="M 67.050781 124.511719 L 100.277344 130.425781 L 91.472656 179.894531 L 58.246094 173.984375 Z M 67.050781 124.511719 " clip-rule="nonzero"/></clipPath><clipPath id="0959bfd2b6"><path d="M 67.050781 124.511719 L 100.277344 130.425781 L 91.472656 179.894531 L 58.246094 173.984375 Z M 67.050781 124.511719 " clip-rule="nonzero"/></clipPath><clipPath id="c9b647bb2c"><path d="M 67.050781 124.511719 L 100.277344 130.425781 L 91.472656 179.894531 L 58.246094 173.984375 Z M 67.050781 124.511719 " clip-rule="nonzero"/></clipPath><clipPath id="c092cc73c7"><path d="M 91 136 L 99 136 L 99 140 L 91 140 Z M 91 136 " clip-rule="nonzero"/></clipPath><clipPath id="0bd85503ce"><path d="M 67.050781 124.511719 L 100.277344 130.425781 L 91.472656 179.894531 L 58.246094 173.984375 Z M 67.050781 124.511719 " clip-rule="nonzero"/></clipPath><clipPath id="bcd1863ab6"><path d="M 67.050781 124.511719 L 100.277344 130.425781 L 91.472656 179.894531 L 58.246094 173.984375 Z M 67.050781 124.511719 " clip-rule="nonzero"/></clipPath><clipPath id="ba5d836ed6"><path d="M 67.050781 124.511719 L 100.277344 130.425781 L 91.472656 179.894531 L 58.246094 173.984375 Z M 67.050781 124.511719 " clip-rule="nonzero"/></clipPath><clipPath id="f56b25f6bf"><path d="M 92 137 L 97 137 L 97 139 L 92 139 Z M 92 137 " clip-rule="nonzero"/></clipPath><clipPath id="a5ae3ba57f"><path d="M 67.050781 124.511719 L 100.277344 130.425781 L 91.472656 179.894531 L 58.246094 173.984375 Z M 67.050781 124.511719 " clip-rule="nonzero"/></clipPath><clipPath id="864f7636de"><path d="M 67.050781 124.511719 L 100.277344 130.425781 L 91.472656 179.894531 L 58.246094 173.984375 Z M 67.050781 124.511719 " clip-rule="nonzero"/></clipPath><clipPath id="7b3d39a6e7"><path d="M 67.050781 124.511719 L 100.277344 130.425781 L 91.472656 179.894531 L 58.246094 173.984375 Z M 67.050781 124.511719 " clip-rule="nonzero"/></clipPath><clipPath id="0780c67e65"><path d="M 91 136 L 96 136 L 96 143 L 91 143 Z M 91 136 " clip-rule="nonzero"/></clipPath><clipPath id="156713334f"><path d="M 67.050781 124.511719 L 100.277344 130.425781 L 91.472656 179.894531 L 58.246094 173.984375 Z M 67.050781 124.511719 " clip-rule="nonzero"/></clipPath><clipPath id="9a13f613a7"><path d="M 67.050781 124.511719 L 100.277344 130.425781 L 91.472656 179.894531 L 58.246094 173.984375 Z M 67.050781 124.511719 " clip-rule="nonzero"/></clipPath><clipPath id="e5dda875de"><path d="M 67.050781 124.511719 L 100.277344 130.425781 L 91.472656 179.894531 L 58.246094 173.984375 Z M 67.050781 124.511719 " clip-rule="nonzero"/></clipPath><clipPath id="2f547af6c6"><path d="M 92 137 L 95 137 L 95 142 L 92 142 Z M 92 137 " clip-rule="nonzero"/></clipPath><clipPath id="afa4daccb7"><path d="M 67.050781 124.511719 L 100.277344 130.425781 L 91.472656 179.894531 L 58.246094 173.984375 Z M 67.050781 124.511719 " clip-rule="nonzero"/></clipPath><clipPath id="3e399aafc8"><path d="M 67.050781 124.511719 L 100.277344 130.425781 L 91.472656 179.894531 L 58.246094 173.984375 Z M 67.050781 124.511719 " clip-rule="nonzero"/></clipPath><clipPath id="8d05afa4ed"><path d="M 67.050781 124.511719 L 100.277344 130.425781 L 91.472656 179.894531 L 58.246094 173.984375 Z M 67.050781 124.511719 " clip-rule="nonzero"/></clipPath><clipPath id="e707ee4ed7"><path d="M 91 129 L 97 129 L 97 139 L 91 139 Z M 91 129 " clip-rule="nonzero"/></clipPath><clipPath id="f9958f07c7"><path d="M 67.050781 124.511719 L 100.277344 130.425781 L 91.472656 179.894531 L 58.246094 173.984375 Z M 67.050781 124.511719 " clip-rule="nonzero"/></clipPath><clipPath id="e820ce4c3f"><path d="M 67.050781 124.511719 L 100.277344 130.425781 L 91.472656 179.894531 L 58.246094 173.984375 Z M 67.050781 124.511719 " clip-rule="nonzero"/></clipPath><clipPath id="5511ee2001"><path d="M 67.050781 124.511719 L 100.277344 130.425781 L 91.472656 179.894531 L 58.246094 173.984375 Z M 67.050781 124.511719 " clip-rule="nonzero"/></clipPath><clipPath id="cf222ae566"><path d="M 94 129 L 97 129 L 97 132 L 94 132 Z M 94 129 " clip-rule="nonzero"/></clipPath><clipPath id="d70b1dd4cf"><path d="M 67.050781 124.511719 L 100.277344 130.425781 L 91.472656 179.894531 L 58.246094 173.984375 Z M 67.050781 124.511719 " clip-rule="nonzero"/></clipPath><clipPath id="f82ad3deee"><path d="M 67.050781 124.511719 L 100.277344 130.425781 L 91.472656 179.894531 L 58.246094 173.984375 Z M 67.050781 124.511719 " clip-rule="nonzero"/></clipPath><clipPath id="c3c6b4b630"><path d="M 67.050781 124.511719 L 100.277344 130.425781 L 91.472656 179.894531 L 58.246094 173.984375 Z M 67.050781 124.511719 " clip-rule="nonzero"/></clipPath></defs><g clip-path="url(#735734405c)"><path fill="#ffde59" d="M 210.304688 91.4375 C 236.027344 90.824219 294.085938 128.382812 294.085938 160.230469 C 294.085938 200.480469 254.097656 189.085938 221.335938 186.253906 C 196.855469 184.136719 181.667969 176.171875 147.160156 177.652344 C 110.023438 179.238281 99.769531 131.089844 130.160156 121.480469 C 151.027344 114.886719 179.722656 93.257812 210.304688 91.4375 Z M 210.304688 91.4375 " fill-opacity="1" fill-rule="evenodd"/></g><path fill="#ffde59" d="M 97.265625 200.152344 C 141.277344 200.152344 154.417969 197.121094 195.179688 191.070312 C 228.367188 186.140625 247.503906 214.523438 224.523438 245.242188 C 207.234375 268.347656 110.203125 266.339844 87.921875 232.414062 C 79.472656 219.550781 83.65625 200.152344 97.265625 200.152344 Z M 97.265625 200.152344 " fill-opacity="1" fill-rule="evenodd"/><g fill="#ffffff" fill-opacity="1"><g transform="translate(104.989454, 172.760035)"><g><path d="M 4.53125 -3.546875 C 3.082031 -4.921875 2.175781 -6.554688 1.8125 -8.453125 C 1.457031 -10.359375 1.359375 -12.328125 1.515625 -14.359375 C 1.679688 -16.390625 1.800781 -18.289062 1.875 -20.0625 L 2.453125 -41.125 C 2.523438 -43.414062 2.5625 -45.738281 2.5625 -48.09375 C 2.5625 -50.457031 2.691406 -52.738281 2.953125 -54.9375 C 3.210938 -57.132812 3.769531 -59.085938 4.625 -60.796875 C 5.476562 -62.503906 6.789062 -63.816406 8.5625 -64.734375 C 10.332031 -65.648438 12.722656 -66.039062 15.734375 -65.90625 C 17.304688 -65.84375 19.222656 -65.796875 21.484375 -65.765625 C 23.753906 -65.734375 26.117188 -65.632812 28.578125 -65.46875 C 31.035156 -65.300781 33.410156 -64.957031 35.703125 -64.4375 C 38.003906 -63.914062 40.003906 -63.078125 41.703125 -61.921875 C 43.410156 -60.773438 44.59375 -59.21875 45.25 -57.25 C 46.164062 -54.625 46.113281 -52.570312 45.09375 -51.09375 C 44.082031 -49.625 42.59375 -48.578125 40.625 -47.953125 C 38.65625 -47.328125 36.570312 -46.96875 34.375 -46.875 C 32.1875 -46.78125 30.300781 -46.796875 28.71875 -46.921875 C 27.675781 -46.984375 26.460938 -47.082031 25.078125 -47.21875 C 23.703125 -47.351562 22.425781 -47.320312 21.25 -47.125 C 20.070312 -46.925781 19.1875 -46.398438 18.59375 -45.546875 C 17.675781 -44.234375 17.347656 -43.148438 17.609375 -42.296875 C 17.867188 -41.441406 18.488281 -40.785156 19.46875 -40.328125 C 20.457031 -39.867188 21.507812 -39.609375 22.625 -39.546875 C 24.988281 -39.347656 27.085938 -39.003906 28.921875 -38.515625 C 30.753906 -38.023438 32.113281 -37.085938 33 -35.703125 C 33.882812 -34.328125 34.097656 -32.234375 33.640625 -29.421875 C 32.984375 -25.410156 31.390625 -22.585938 28.859375 -20.953125 C 26.335938 -19.316406 23.113281 -19.117188 19.1875 -20.359375 C 19.1875 -18.921875 19.085938 -17.050781 18.890625 -14.75 C 18.691406 -12.457031 18.296875 -10.160156 17.703125 -7.859375 C 17.117188 -5.566406 16.269531 -3.664062 15.15625 -2.15625 C 14.039062 -0.65625 12.613281 0.078125 10.875 0.046875 C 9.132812 0.015625 7.019531 -1.179688 4.53125 -3.546875 Z M 4.53125 -3.546875 "/></g></g></g><g fill="#ffffff" fill-opacity="1"><g transform="translate(148.861222, 172.760035)"><g><path d="M 5.515625 -3.4375 C 4.003906 -6.0625 2.9375 -9 2.3125 -12.25 C 1.6875 -15.5 1.40625 -18.859375 1.46875 -22.328125 C 1.539062 -25.804688 1.789062 -29.21875 2.21875 -32.5625 C 2.644531 -35.90625 3.148438 -39.019531 3.734375 -41.90625 C 3.929688 -42.957031 4.207031 -44.1875 4.5625 -45.59375 C 4.925781 -47.007812 5.4375 -48.335938 6.09375 -49.578125 C 6.75 -50.828125 7.632812 -51.679688 8.75 -52.140625 C 10.132812 -52.734375 11.347656 -52.734375 12.390625 -52.140625 C 13.441406 -51.546875 14.328125 -50.625 15.046875 -49.375 C 15.773438 -48.132812 16.347656 -46.84375 16.765625 -45.5 C 17.191406 -44.15625 17.503906 -42.988281 17.703125 -42 C 18.753906 -43.769531 20 -45.425781 21.4375 -46.96875 C 22.882812 -48.507812 24.539062 -49.671875 26.40625 -50.453125 C 28.28125 -51.242188 30.300781 -51.378906 32.46875 -50.859375 C 34.363281 -50.398438 36.097656 -49.445312 37.671875 -48 C 39.242188 -46.5625 40.554688 -44.90625 41.609375 -43.03125 C 42.660156 -41.164062 43.285156 -39.28125 43.484375 -37.375 C 43.609375 -35.875 43.328125 -34.5 42.640625 -33.25 C 41.953125 -32 40.789062 -31.3125 39.15625 -31.1875 C 37.644531 -31.125 36.460938 -31.566406 35.609375 -32.515625 C 34.753906 -33.460938 33.769531 -34.332031 32.65625 -35.125 C 30.957031 -36.4375 29.382812 -36.925781 27.9375 -36.59375 C 26.5 -36.269531 25.203125 -35.5 24.046875 -34.28125 C 22.898438 -33.070312 21.867188 -31.679688 20.953125 -30.109375 C 19.972656 -28.460938 19.101562 -26.753906 18.34375 -24.984375 C 17.59375 -23.210938 17.050781 -21.378906 16.71875 -19.484375 C 16.332031 -17.378906 16.070312 -15.257812 15.9375 -13.125 C 15.800781 -11 15.570312 -8.882812 15.25 -6.78125 C 14.914062 -4.820312 14.222656 -3.164062 13.171875 -1.8125 C 12.128906 -0.46875 10.914062 0.148438 9.53125 0.046875 C 8.15625 -0.046875 6.816406 -1.207031 5.515625 -3.4375 Z M 5.515625 -3.4375 "/></g></g></g><g fill="#ffffff" fill-opacity="1"><g transform="translate(191.355844, 172.760035)"><g><path d="M 13.1875 -4.421875 C 10.101562 -4.953125 7.65625 -6.164062 5.84375 -8.0625 C 4.039062 -9.96875 2.8125 -12.265625 2.15625 -14.953125 C 1.507812 -17.640625 1.332031 -20.457031 1.625 -23.40625 C 1.914062 -26.363281 2.617188 -29.171875 3.734375 -31.828125 C 4.847656 -34.484375 6.257812 -36.726562 7.96875 -38.5625 C 10.132812 -40.851562 12.875 -42.554688 16.1875 -43.671875 C 19.5 -44.785156 22.726562 -44.882812 25.875 -43.96875 C 27.507812 -43.507812 29.015625 -42.671875 30.390625 -41.453125 C 31.773438 -40.242188 32.859375 -38.851562 33.640625 -37.28125 C 34.429688 -35.707031 34.757812 -34.082031 34.625 -32.40625 C 34.5 -30.738281 33.78125 -29.148438 32.46875 -27.640625 C 31.21875 -26.265625 29.671875 -25.25 27.828125 -24.59375 C 25.992188 -23.9375 24.191406 -23.445312 22.421875 -23.125 C 21.242188 -22.925781 20.03125 -22.789062 18.78125 -22.71875 C 17.539062 -22.65625 16.476562 -22.34375 15.59375 -21.78125 C 14.707031 -21.226562 14.195312 -20.097656 14.0625 -18.390625 C 13.9375 -16.617188 14.21875 -15.535156 14.90625 -15.140625 C 15.59375 -14.753906 16.476562 -14.804688 17.5625 -15.296875 C 18.644531 -15.785156 19.773438 -16.457031 20.953125 -17.3125 C 22.128906 -18.164062 23.207031 -18.984375 24.1875 -19.765625 C 25.175781 -20.554688 25.867188 -21.050781 26.265625 -21.25 C 28.367188 -22.164062 29.878906 -22.226562 30.796875 -21.4375 C 31.710938 -20.65625 32.203125 -19.457031 32.265625 -17.84375 C 32.328125 -16.238281 32.078125 -14.617188 31.515625 -12.984375 C 30.960938 -11.347656 30.265625 -10.101562 29.421875 -9.25 C 27.378906 -7.21875 24.863281 -5.789062 21.875 -4.96875 C 18.894531 -4.144531 16 -3.960938 13.1875 -4.421875 Z M 19.671875 -29.3125 C 20.328125 -29.113281 21.179688 -29.128906 22.234375 -29.359375 C 23.285156 -29.585938 24.171875 -29.976562 24.890625 -30.53125 C 25.609375 -31.09375 25.804688 -31.703125 25.484375 -32.359375 C 24.234375 -32.554688 23.082031 -32.394531 22.03125 -31.875 C 20.988281 -31.351562 20.203125 -30.5 19.671875 -29.3125 Z M 19.671875 -29.3125 "/></g></g></g><g fill="#ffffff" fill-opacity="1"><g transform="translate(225.489187, 172.760035)"><g><path d="M 14.359375 4.71875 C 12.523438 5.375 10.492188 5.785156 8.265625 5.953125 C 6.035156 6.117188 4.132812 5.476562 2.5625 4.03125 C 0.988281 2.59375 0.148438 1.085938 0.046875 -0.484375 C -0.046875 -2.066406 0.523438 -3.644531 1.765625 -5.21875 C 2.753906 -6.457031 3.96875 -7.46875 5.40625 -8.25 C 6.851562 -9.039062 8.3125 -9.8125 9.78125 -10.5625 C 11.257812 -11.320312 12.617188 -12.175781 13.859375 -13.125 C 15.109375 -14.082031 16.03125 -15.347656 16.625 -16.921875 C 17.21875 -18.359375 17.300781 -19.566406 16.875 -20.546875 C 16.445312 -21.535156 15.804688 -22.421875 14.953125 -23.203125 C 14.097656 -23.992188 13.242188 -24.816406 12.390625 -25.671875 C 10.953125 -27.242188 9.921875 -29.015625 9.296875 -30.984375 C 8.671875 -32.953125 8.625 -35.019531 9.15625 -37.1875 C 9.9375 -40.664062 11.671875 -43.351562 14.359375 -45.25 C 17.046875 -47.15625 19.96875 -48.597656 23.125 -49.578125 C 24.238281 -49.910156 25.546875 -50.222656 27.046875 -50.515625 C 28.554688 -50.804688 30.050781 -50.921875 31.53125 -50.859375 C 33.007812 -50.796875 34.351562 -50.453125 35.5625 -49.828125 C 36.769531 -49.203125 37.640625 -48.132812 38.171875 -46.625 C 38.890625 -44.65625 38.851562 -43.046875 38.0625 -41.796875 C 37.28125 -40.554688 36.066406 -39.507812 34.421875 -38.65625 C 32.785156 -37.800781 31.066406 -36.976562 29.265625 -36.1875 C 27.460938 -35.40625 25.90625 -34.503906 24.59375 -33.484375 C 23.28125 -32.472656 22.554688 -31.179688 22.421875 -29.609375 C 22.359375 -28.296875 22.753906 -27.128906 23.609375 -26.109375 C 24.460938 -25.097656 25.445312 -24.164062 26.5625 -23.3125 C 27.675781 -22.457031 28.53125 -21.539062 29.125 -20.5625 C 30.039062 -18.988281 30.53125 -17.332031 30.59375 -15.59375 C 30.65625 -13.851562 30.425781 -12.128906 29.90625 -10.421875 C 28.789062 -6.816406 26.789062 -3.71875 23.90625 -1.125 C 21.019531 1.457031 17.835938 3.40625 14.359375 4.71875 Z M 14.359375 4.71875 "/></g></g></g><g fill="#ffffff" fill-opacity="1"><g transform="translate(263.655629, 172.760035)"><g><path d="M 34.921875 11.8125 C 34.003906 12.53125 33.132812 12.773438 32.3125 12.546875 C 31.5 12.316406 30.765625 11.820312 30.109375 11.0625 C 29.453125 10.3125 28.894531 9.539062 28.4375 8.75 C 27.78125 7.375 27.351562 5.898438 27.15625 4.328125 C 26.957031 2.753906 26.789062 1.148438 26.65625 -0.484375 C 26.53125 -2.128906 26.253906 -3.6875 25.828125 -5.15625 C 25.398438 -6.632812 24.59375 -7.96875 23.40625 -9.15625 C 22.226562 -8.101562 20.867188 -6.9375 19.328125 -5.65625 C 17.785156 -4.375 16.160156 -3.222656 14.453125 -2.203125 C 12.753906 -1.191406 11.117188 -0.554688 9.546875 -0.296875 C 7.972656 -0.0351562 6.5625 -0.394531 5.3125 -1.375 C 4.0625 -2.363281 3.144531 -4.265625 2.5625 -7.078125 C 1.707031 -10.878906 1.328125 -14.894531 1.421875 -19.125 C 1.523438 -23.363281 1.90625 -27.613281 2.5625 -31.875 C 3.21875 -36.132812 3.875 -40.132812 4.53125 -43.875 C 4.988281 -46.5 5.507812 -49.367188 6.09375 -52.484375 C 6.6875 -55.597656 7.707031 -58.269531 9.15625 -60.5 C 10.269531 -62.207031 11.628906 -63.191406 13.234375 -63.453125 C 14.835938 -63.710938 16.328125 -63.398438 17.703125 -62.515625 C 19.078125 -61.628906 19.960938 -60.269531 20.359375 -58.4375 C 20.816406 -56.207031 20.878906 -53.878906 20.546875 -51.453125 C 20.222656 -49.023438 19.816406 -46.597656 19.328125 -44.171875 C 18.835938 -41.742188 18.523438 -39.382812 18.390625 -37.09375 C 18.191406 -33.675781 18.007812 -30.257812 17.84375 -26.84375 C 17.6875 -23.4375 17.347656 -20.0625 16.828125 -16.71875 C 17.867188 -17.769531 19.0625 -18.851562 20.40625 -19.96875 C 21.75 -21.082031 23.175781 -21.96875 24.6875 -22.625 C 26.195312 -23.28125 27.671875 -23.457031 29.109375 -23.15625 C 30.554688 -22.863281 31.867188 -21.832031 33.046875 -20.0625 C 34.160156 -18.363281 34.914062 -16.265625 35.3125 -13.765625 C 35.707031 -11.273438 35.9375 -8.765625 36 -6.234375 C 36.070312 -3.710938 36.140625 -1.472656 36.203125 0.484375 C 36.203125 1.410156 36.265625 2.625 36.390625 4.125 C 36.523438 5.632812 36.523438 7.109375 36.390625 8.546875 C 36.265625 9.992188 35.773438 11.082031 34.921875 11.8125 Z M 34.921875 11.8125 "/></g></g></g><g fill="#267024" fill-opacity="1"><g transform="translate(102.119774, 169.890355)"><g><path d="M 4.53125 -3.546875 C 3.082031 -4.921875 2.175781 -6.554688 1.8125 -8.453125 C 1.457031 -10.359375 1.359375 -12.328125 1.515625 -14.359375 C 1.679688 -16.390625 1.800781 -18.289062 1.875 -20.0625 L 2.453125 -41.125 C 2.523438 -43.414062 2.5625 -45.738281 2.5625 -48.09375 C 2.5625 -50.457031 2.691406 -52.738281 2.953125 -54.9375 C 3.210938 -57.132812 3.769531 -59.085938 4.625 -60.796875 C 5.476562 -62.503906 6.789062 -63.816406 8.5625 -64.734375 C 10.332031 -65.648438 12.722656 -66.039062 15.734375 -65.90625 C 17.304688 -65.84375 19.222656 -65.796875 21.484375 -65.765625 C 23.753906 -65.734375 26.117188 -65.632812 28.578125 -65.46875 C 31.035156 -65.300781 33.410156 -64.957031 35.703125 -64.4375 C 38.003906 -63.914062 40.003906 -63.078125 41.703125 -61.921875 C 43.410156 -60.773438 44.59375 -59.21875 45.25 -57.25 C 46.164062 -54.625 46.113281 -52.570312 45.09375 -51.09375 C 44.082031 -49.625 42.59375 -48.578125 40.625 -47.953125 C 38.65625 -47.328125 36.570312 -46.96875 34.375 -46.875 C 32.1875 -46.78125 30.300781 -46.796875 28.71875 -46.921875 C 27.675781 -46.984375 26.460938 -47.082031 25.078125 -47.21875 C 23.703125 -47.351562 22.425781 -47.320312 21.25 -47.125 C 20.070312 -46.925781 19.1875 -46.398438 18.59375 -45.546875 C 17.675781 -44.234375 17.347656 -43.148438 17.609375 -42.296875 C 17.867188 -41.441406 18.488281 -40.785156 19.46875 -40.328125 C 20.457031 -39.867188 21.507812 -39.609375 22.625 -39.546875 C 24.988281 -39.347656 27.085938 -39.003906 28.921875 -38.515625 C 30.753906 -38.023438 32.113281 -37.085938 33 -35.703125 C 33.882812 -34.328125 34.097656 -32.234375 33.640625 -29.421875 C 32.984375 -25.410156 31.390625 -22.585938 28.859375 -20.953125 C 26.335938 -19.316406 23.113281 -19.117188 19.1875 -20.359375 C 19.1875 -18.921875 19.085938 -17.050781 18.890625 -14.75 C 18.691406 -12.457031 18.296875 -10.160156 17.703125 -7.859375 C 17.117188 -5.566406 16.269531 -3.664062 15.15625 -2.15625 C 14.039062 -0.65625 12.613281 0.078125 10.875 0.046875 C 9.132812 0.015625 7.019531 -1.179688 4.53125 -3.546875 Z M 4.53125 -3.546875 "/></g></g></g><g fill="#267024" fill-opacity="1"><g transform="translate(145.991542, 169.890355)"><g><path d="M 5.515625 -3.4375 C 4.003906 -6.0625 2.9375 -9 2.3125 -12.25 C 1.6875 -15.5 1.40625 -18.859375 1.46875 -22.328125 C 1.539062 -25.804688 1.789062 -29.21875 2.21875 -32.5625 C 2.644531 -35.90625 3.148438 -39.019531 3.734375 -41.90625 C 3.929688 -42.957031 4.207031 -44.1875 4.5625 -45.59375 C 4.925781 -47.007812 5.4375 -48.335938 6.09375 -49.578125 C 6.75 -50.828125 7.632812 -51.679688 8.75 -52.140625 C 10.132812 -52.734375 11.347656 -52.734375 12.390625 -52.140625 C 13.441406 -51.546875 14.328125 -50.625 15.046875 -49.375 C 15.773438 -48.132812 16.347656 -46.84375 16.765625 -45.5 C 17.191406 -44.15625 17.503906 -42.988281 17.703125 -42 C 18.753906 -43.769531 20 -45.425781 21.4375 -46.96875 C 22.882812 -48.507812 24.539062 -49.671875 26.40625 -50.453125 C 28.28125 -51.242188 30.300781 -51.378906 32.46875 -50.859375 C 34.363281 -50.398438 36.097656 -49.445312 37.671875 -48 C 39.242188 -46.5625 40.554688 -44.90625 41.609375 -43.03125 C 42.660156 -41.164062 43.285156 -39.28125 43.484375 -37.375 C 43.609375 -35.875 43.328125 -34.5 42.640625 -33.25 C 41.953125 -32 40.789062 -31.3125 39.15625 -31.1875 C 37.644531 -31.125 36.460938 -31.566406 35.609375 -32.515625 C 34.753906 -33.460938 33.769531 -34.332031 32.65625 -35.125 C 30.957031 -36.4375 29.382812 -36.925781 27.9375 -36.59375 C 26.5 -36.269531 25.203125 -35.5 24.046875 -34.28125 C 22.898438 -33.070312 21.867188 -31.679688 20.953125 -30.109375 C 19.972656 -28.460938 19.101562 -26.753906 18.34375 -24.984375 C 17.59375 -23.210938 17.050781 -21.378906 16.71875 -19.484375 C 16.332031 -17.378906 16.070312 -15.257812 15.9375 -13.125 C 15.800781 -11 15.570312 -8.882812 15.25 -6.78125 C 14.914062 -4.820312 14.222656 -3.164062 13.171875 -1.8125 C 12.128906 -0.46875 10.914062 0.148438 9.53125 0.046875 C 8.15625 -0.046875 6.816406 -1.207031 5.515625 -3.4375 Z M 5.515625 -3.4375 "/></g></g></g><g fill="#267024" fill-opacity="1"><g transform="translate(188.486164, 169.890355)"><g><path d="M 13.1875 -4.421875 C 10.101562 -4.953125 7.65625 -6.164062 5.84375 -8.0625 C 4.039062 -9.96875 2.8125 -12.265625 2.15625 -14.953125 C 1.507812 -17.640625 1.332031 -20.457031 1.625 -23.40625 C 1.914062 -26.363281 2.617188 -29.171875 3.734375 -31.828125 C 4.847656 -34.484375 6.257812 -36.726562 7.96875 -38.5625 C 10.132812 -40.851562 12.875 -42.554688 16.1875 -43.671875 C 19.5 -44.785156 22.726562 -44.882812 25.875 -43.96875 C 27.507812 -43.507812 29.015625 -42.671875 30.390625 -41.453125 C 31.773438 -40.242188 32.859375 -38.851562 33.640625 -37.28125 C 34.429688 -35.707031 34.757812 -34.082031 34.625 -32.40625 C 34.5 -30.738281 33.78125 -29.148438 32.46875 -27.640625 C 31.21875 -26.265625 29.671875 -25.25 27.828125 -24.59375 C 25.992188 -23.9375 24.191406 -23.445312 22.421875 -23.125 C 21.242188 -22.925781 20.03125 -22.789062 18.78125 -22.71875 C 17.539062 -22.65625 16.476562 -22.34375 15.59375 -21.78125 C 14.707031 -21.226562 14.195312 -20.097656 14.0625 -18.390625 C 13.9375 -16.617188 14.21875 -15.535156 14.90625 -15.140625 C 15.59375 -14.753906 16.476562 -14.804688 17.5625 -15.296875 C 18.644531 -15.785156 19.773438 -16.457031 20.953125 -17.3125 C 22.128906 -18.164062 23.207031 -18.984375 24.1875 -19.765625 C 25.175781 -20.554688 25.867188 -21.050781 26.265625 -21.25 C 28.367188 -22.164062 29.878906 -22.226562 30.796875 -21.4375 C 31.710938 -20.65625 32.203125 -19.457031 32.265625 -17.84375 C 32.328125 -16.238281 32.078125 -14.617188 31.515625 -12.984375 C 30.960938 -11.347656 30.265625 -10.101562 29.421875 -9.25 C 27.378906 -7.21875 24.863281 -5.789062 21.875 -4.96875 C 18.894531 -4.144531 16 -3.960938 13.1875 -4.421875 Z M 19.671875 -29.3125 C 20.328125 -29.113281 21.179688 -29.128906 22.234375 -29.359375 C 23.285156 -29.585938 24.171875 -29.976562 24.890625 -30.53125 C 25.609375 -31.09375 25.804688 -31.703125 25.484375 -32.359375 C 24.234375 -32.554688 23.082031 -32.394531 22.03125 -31.875 C 20.988281 -31.351562 20.203125 -30.5 19.671875 -29.3125 Z M 19.671875 -29.3125 "/></g></g></g><g fill="#267024" fill-opacity="1"><g transform="translate(222.619507, 169.890355)"><g><path d="M 14.359375 4.71875 C 12.523438 5.375 10.492188 5.785156 8.265625 5.953125 C 6.035156 6.117188 4.132812 5.476562 2.5625 4.03125 C 0.988281 2.59375 0.148438 1.085938 0.046875 -0.484375 C -0.046875 -2.066406 0.523438 -3.644531 1.765625 -5.21875 C 2.753906 -6.457031 3.96875 -7.46875 5.40625 -8.25 C 6.851562 -9.039062 8.3125 -9.8125 9.78125 -10.5625 C 11.257812 -11.320312 12.617188 -12.175781 13.859375 -13.125 C 15.109375 -14.082031 16.03125 -15.347656 16.625 -16.921875 C 17.21875 -18.359375 17.300781 -19.566406 16.875 -20.546875 C 16.445312 -21.535156 15.804688 -22.421875 14.953125 -23.203125 C 14.097656 -23.992188 13.242188 -24.816406 12.390625 -25.671875 C 10.953125 -27.242188 9.921875 -29.015625 9.296875 -30.984375 C 8.671875 -32.953125 8.625 -35.019531 9.15625 -37.1875 C 9.9375 -40.664062 11.671875 -43.351562 14.359375 -45.25 C 17.046875 -47.15625 19.96875 -48.597656 23.125 -49.578125 C 24.238281 -49.910156 25.546875 -50.222656 27.046875 -50.515625 C 28.554688 -50.804688 30.050781 -50.921875 31.53125 -50.859375 C 33.007812 -50.796875 34.351562 -50.453125 35.5625 -49.828125 C 36.769531 -49.203125 37.640625 -48.132812 38.171875 -46.625 C 38.890625 -44.65625 38.851562 -43.046875 38.0625 -41.796875 C 37.28125 -40.554688 36.066406 -39.507812 34.421875 -38.65625 C 32.785156 -37.800781 31.066406 -36.976562 29.265625 -36.1875 C 27.460938 -35.40625 25.90625 -34.503906 24.59375 -33.484375 C 23.28125 -32.472656 22.554688 -31.179688 22.421875 -29.609375 C 22.359375 -28.296875 22.753906 -27.128906 23.609375 -26.109375 C 24.460938 -25.097656 25.445312 -24.164062 26.5625 -23.3125 C 27.675781 -22.457031 28.53125 -21.539062 29.125 -20.5625 C 30.039062 -18.988281 30.53125 -17.332031 30.59375 -15.59375 C 30.65625 -13.851562 30.425781 -12.128906 29.90625 -10.421875 C 28.789062 -6.816406 26.789062 -3.71875 23.90625 -1.125 C 21.019531 1.457031 17.835938 3.40625 14.359375 4.71875 Z M 14.359375 4.71875 "/></g></g></g><g fill="#267024" fill-opacity="1"><g transform="translate(260.785949, 169.890355)"><g><path d="M 34.921875 11.8125 C 34.003906 12.53125 33.132812 12.773438 32.3125 12.546875 C 31.5 12.316406 30.765625 11.820312 30.109375 11.0625 C 29.453125 10.3125 28.894531 9.539062 28.4375 8.75 C 27.78125 7.375 27.351562 5.898438 27.15625 4.328125 C 26.957031 2.753906 26.789062 1.148438 26.65625 -0.484375 C 26.53125 -2.128906 26.253906 -3.6875 25.828125 -5.15625 C 25.398438 -6.632812 24.59375 -7.96875 23.40625 -9.15625 C 22.226562 -8.101562 20.867188 -6.9375 19.328125 -5.65625 C 17.785156 -4.375 16.160156 -3.222656 14.453125 -2.203125 C 12.753906 -1.191406 11.117188 -0.554688 9.546875 -0.296875 C 7.972656 -0.0351562 6.5625 -0.394531 5.3125 -1.375 C 4.0625 -2.363281 3.144531 -4.265625 2.5625 -7.078125 C 1.707031 -10.878906 1.328125 -14.894531 1.421875 -19.125 C 1.523438 -23.363281 1.90625 -27.613281 2.5625 -31.875 C 3.21875 -36.132812 3.875 -40.132812 4.53125 -43.875 C 4.988281 -46.5 5.507812 -49.367188 6.09375 -52.484375 C 6.6875 -55.597656 7.707031 -58.269531 9.15625 -60.5 C 10.269531 -62.207031 11.628906 -63.191406 13.234375 -63.453125 C 14.835938 -63.710938 16.328125 -63.398438 17.703125 -62.515625 C 19.078125 -61.628906 19.960938 -60.269531 20.359375 -58.4375 C 20.816406 -56.207031 20.878906 -53.878906 20.546875 -51.453125 C 20.222656 -49.023438 19.816406 -46.597656 19.328125 -44.171875 C 18.835938 -41.742188 18.523438 -39.382812 18.390625 -37.09375 C 18.191406 -33.675781 18.007812 -30.257812 17.84375 -26.84375 C 17.6875 -23.4375 17.347656 -20.0625 16.828125 -16.71875 C 17.867188 -17.769531 19.0625 -18.851562 20.40625 -19.96875 C 21.75 -21.082031 23.175781 -21.96875 24.6875 -22.625 C 26.195312 -23.28125 27.671875 -23.457031 29.109375 -23.15625 C 30.554688 -22.863281 31.867188 -21.832031 33.046875 -20.0625 C 34.160156 -18.363281 34.914062 -16.265625 35.3125 -13.765625 C 35.707031 -11.273438 35.9375 -8.765625 36 -6.234375 C 36.070312 -3.710938 36.140625 -1.472656 36.203125 0.484375 C 36.203125 1.410156 36.265625 2.625 36.390625 4.125 C 36.523438 5.632812 36.523438 7.109375 36.390625 8.546875 C 36.265625 9.992188 35.773438 11.082031 34.921875 11.8125 Z M 34.921875 11.8125 "/></g></g></g><g clip-path="url(#3cff32b6ed)"><g clip-path="url(#9589a4073d)"><g clip-path="url(#c3ce7c0f1a)"><g clip-path="url(#b6a9e3ecab)"><path fill="#267024" d="M 229.171875 113.632812 C 226.570312 113.546875 224.125 114.324219 222 115.691406 C 222.550781 112.996094 222.214844 110.363281 220.609375 108.203125 C 218.320312 109.429688 216.59375 111.320312 215.441406 113.558594 C 214.566406 110.957031 212.960938 108.851562 210.5 107.789062 C 206.722656 113.859375 209.152344 122.171875 214.765625 126.875 C 214.765625 126.878906 214.765625 126.878906 214.765625 126.882812 C 214.765625 126.882812 214.769531 126.878906 214.769531 126.878906 C 214.769531 126.878906 214.769531 126.882812 214.773438 126.882812 C 214.769531 126.882812 214.769531 126.882812 214.769531 126.882812 C 214.773438 126.882812 214.773438 126.882812 214.773438 126.882812 C 214.773438 126.882812 214.773438 126.886719 214.777344 126.886719 C 214.777344 126.886719 214.777344 126.882812 214.777344 126.882812 C 222.367188 125.621094 229.949219 120.316406 229.171875 113.632812 " fill-opacity="1" fill-rule="nonzero"/></g></g></g></g><g fill="#ffffff" fill-opacity="1"><g transform="translate(59.104688, 239.531483)"><g><path d="M 47.140625 -0.421875 C 45.953125 -0.867188 45.085938 -1.628906 44.546875 -2.703125 C 44.015625 -3.773438 43.664062 -4.957031 43.5 -6.25 C 43.332031 -7.539062 43.21875 -8.695312 43.15625 -9.71875 C 42.9375 -12.863281 42.835938 -16.015625 42.859375 -19.171875 C 42.890625 -22.328125 42.679688 -25.484375 42.234375 -28.640625 C 41.160156 -27.566406 39.929688 -26.269531 38.546875 -24.75 C 37.171875 -23.226562 35.679688 -21.890625 34.078125 -20.734375 C 32.472656 -19.578125 30.828125 -19.054688 29.140625 -19.171875 C 27.785156 -19.285156 26.585938 -19.789062 25.546875 -20.6875 C 24.503906 -21.59375 23.546875 -22.71875 22.671875 -24.0625 C 21.804688 -25.414062 21.035156 -26.78125 20.359375 -28.15625 C 19.679688 -29.539062 19.035156 -30.710938 18.421875 -31.671875 C 17.460938 -29.535156 16.882812 -27.226562 16.6875 -24.75 C 16.488281 -22.269531 16.359375 -19.765625 16.296875 -17.234375 C 16.242188 -14.703125 15.988281 -12.222656 15.53125 -9.796875 C 15.082031 -7.378906 14.097656 -5.15625 12.578125 -3.125 C 11.234375 -1.320312 9.660156 -0.421875 7.859375 -0.421875 C 6.054688 -0.421875 4.503906 -1.347656 3.203125 -3.203125 C 2.253906 -4.671875 1.679688 -6.273438 1.484375 -8.015625 C 1.285156 -9.765625 1.285156 -11.554688 1.484375 -13.390625 C 1.679688 -15.222656 1.863281 -16.925781 2.03125 -18.5 C 2.363281 -21.875 2.769531 -25.25 3.25 -28.625 C 3.726562 -32.007812 4.222656 -35.363281 4.734375 -38.6875 C 5.015625 -40.65625 5.320312 -42.765625 5.65625 -45.015625 C 6 -47.273438 6.816406 -49.21875 8.109375 -50.84375 C 9.578125 -52.644531 11.125 -53.671875 12.75 -53.921875 C 14.382812 -54.179688 16.03125 -53.898438 17.6875 -53.078125 C 19.351562 -52.265625 20.929688 -51.15625 22.421875 -49.75 C 23.921875 -48.34375 25.285156 -46.863281 26.515625 -45.3125 C 27.753906 -43.769531 28.769531 -42.40625 29.5625 -41.21875 C 30.289062 -42.40625 31.21875 -43.800781 32.34375 -45.40625 C 33.476562 -47.007812 34.734375 -48.570312 36.109375 -50.09375 C 37.492188 -51.613281 38.957031 -52.878906 40.5 -53.890625 C 42.050781 -54.898438 43.65625 -55.421875 45.3125 -55.453125 C 46.976562 -55.484375 48.65625 -54.765625 50.34375 -53.296875 C 51.414062 -52.398438 52.191406 -51.289062 52.671875 -49.96875 C 53.148438 -48.644531 53.5 -47.273438 53.71875 -45.859375 C 53.945312 -44.453125 54.171875 -43.101562 54.390625 -41.8125 C 54.960938 -38.71875 55.441406 -35.609375 55.828125 -32.484375 C 56.222656 -29.359375 56.476562 -26.21875 56.59375 -23.0625 C 56.644531 -22.269531 56.6875 -21.082031 56.71875 -19.5 C 56.75 -17.925781 56.707031 -16.179688 56.59375 -14.265625 C 56.476562 -12.359375 56.25 -10.460938 55.90625 -8.578125 C 55.570312 -6.691406 55.050781 -5.015625 54.34375 -3.546875 C 53.644531 -2.078125 52.71875 -1.035156 51.5625 -0.421875 C 50.414062 0.191406 48.941406 0.191406 47.140625 -0.421875 Z M 47.140625 -0.421875 "/></g></g></g><g fill="#ffffff" fill-opacity="1"><g transform="translate(115.859655, 239.531483)"><g><path d="M 26.953125 -0.078125 C 25.992188 -0.304688 25.257812 -0.859375 24.75 -1.734375 C 24.238281 -2.609375 23.882812 -3.617188 23.6875 -4.765625 C 23.488281 -5.921875 23.363281 -7.046875 23.3125 -8.140625 C 23.257812 -9.242188 23.234375 -10.132812 23.234375 -10.8125 C 22.046875 -9.175781 20.535156 -7.78125 18.703125 -6.625 C 16.878906 -5.476562 14.96875 -4.75 12.96875 -4.4375 C 10.96875 -4.125 9.09375 -4.359375 7.34375 -5.140625 C 5.601562 -5.929688 4.171875 -7.425781 3.046875 -9.625 C 1.972656 -11.882812 1.394531 -14.304688 1.3125 -16.890625 C 1.226562 -19.484375 1.550781 -22.0625 2.28125 -24.625 C 3.007812 -27.1875 3.992188 -29.453125 5.234375 -31.421875 C 6.421875 -33.222656 7.859375 -34.828125 9.546875 -36.234375 C 11.234375 -37.640625 13.0625 -38.640625 15.03125 -39.234375 C 17 -39.828125 18.910156 -39.828125 20.765625 -39.234375 C 22.628906 -38.640625 24.320312 -37.273438 25.84375 -35.140625 C 26.75 -33.898438 27.492188 -32.800781 28.078125 -31.84375 C 28.671875 -30.882812 29.125 -29.867188 29.4375 -28.796875 C 29.75 -27.734375 29.929688 -26.382812 29.984375 -24.75 L 30.5 -8.875 C 30.5 -8.25 30.523438 -7.398438 30.578125 -6.328125 C 30.628906 -5.265625 30.582031 -4.210938 30.4375 -3.171875 C 30.300781 -2.128906 29.96875 -1.296875 29.4375 -0.671875 C 28.90625 -0.0546875 28.078125 0.140625 26.953125 -0.078125 Z M 16.21875 -19.171875 C 16.894531 -19.171875 17.597656 -19.550781 18.328125 -20.3125 C 19.054688 -21.070312 19.71875 -21.914062 20.3125 -22.84375 C 20.90625 -23.78125 21.285156 -24.5 21.453125 -25 C 22.015625 -26.238281 22.082031 -27.335938 21.65625 -28.296875 C 21.238281 -29.253906 20.351562 -29.453125 19 -28.890625 C 18.101562 -28.546875 17.234375 -27.753906 16.390625 -26.515625 C 15.546875 -25.285156 14.953125 -24.21875 14.609375 -23.3125 C 14.328125 -22.414062 14.210938 -21.515625 14.265625 -20.609375 C 14.328125 -19.710938 14.976562 -19.234375 16.21875 -19.171875 Z M 16.21875 -19.171875 "/></g></g></g><g fill="#ffffff" fill-opacity="1"><g transform="translate(146.517391, 239.531483)"><g><path d="M 4.734375 -2.953125 C 3.429688 -5.203125 2.515625 -7.722656 1.984375 -10.515625 C 1.453125 -13.304688 1.210938 -16.191406 1.265625 -19.171875 C 1.316406 -22.160156 1.523438 -25.085938 1.890625 -27.953125 C 2.265625 -30.828125 2.703125 -33.503906 3.203125 -35.984375 C 3.378906 -36.878906 3.617188 -37.929688 3.921875 -39.140625 C 4.234375 -40.359375 4.671875 -41.5 5.234375 -42.5625 C 5.796875 -43.632812 6.554688 -44.367188 7.515625 -44.765625 C 8.703125 -45.273438 9.742188 -45.273438 10.640625 -44.765625 C 11.546875 -44.265625 12.304688 -43.476562 12.921875 -42.40625 C 13.546875 -41.332031 14.039062 -40.21875 14.40625 -39.0625 C 14.769531 -37.90625 15.035156 -36.90625 15.203125 -36.0625 C 16.109375 -37.582031 17.175781 -39.003906 18.40625 -40.328125 C 19.644531 -41.648438 21.066406 -42.648438 22.671875 -43.328125 C 24.285156 -44.003906 26.019531 -44.117188 27.875 -43.671875 C 29.507812 -43.273438 31 -42.457031 32.34375 -41.21875 C 33.695312 -39.976562 34.820312 -38.554688 35.71875 -36.953125 C 36.625 -35.347656 37.160156 -33.726562 37.328125 -32.09375 C 37.441406 -30.800781 37.203125 -29.617188 36.609375 -28.546875 C 36.023438 -27.484375 35.03125 -26.894531 33.625 -26.78125 C 32.320312 -26.71875 31.304688 -27.09375 30.578125 -27.90625 C 29.847656 -28.726562 29.003906 -29.476562 28.046875 -30.15625 C 26.578125 -31.28125 25.222656 -31.703125 23.984375 -31.421875 C 22.742188 -31.140625 21.628906 -30.476562 20.640625 -29.4375 C 19.660156 -28.394531 18.773438 -27.195312 17.984375 -25.84375 C 17.140625 -24.4375 16.394531 -22.972656 15.75 -21.453125 C 15.101562 -19.929688 14.640625 -18.351562 14.359375 -16.71875 C 14.023438 -14.914062 13.800781 -13.097656 13.6875 -11.265625 C 13.570312 -9.441406 13.375 -7.628906 13.09375 -5.828125 C 12.8125 -4.140625 12.21875 -2.71875 11.3125 -1.5625 C 10.414062 -0.40625 9.375 0.128906 8.1875 0.046875 C 7.007812 -0.0351562 5.859375 -1.035156 4.734375 -2.953125 Z M 4.734375 -2.953125 "/></g></g></g><g fill="#ffffff" fill-opacity="1"><g transform="translate(183.42495, 239.531483)"><g><path d="M 9.296875 1.859375 C 7.597656 2.585938 6.269531 2.828125 5.3125 2.578125 C 4.363281 2.328125 3.660156 1.789062 3.203125 0.96875 C 2.753906 0.15625 2.445312 -0.769531 2.28125 -1.8125 C 2.113281 -2.851562 1.972656 -3.742188 1.859375 -4.484375 C 1.179688 -10.335938 1.039062 -16.21875 1.4375 -22.125 C 1.832031 -28.039062 2.394531 -33.898438 3.125 -39.703125 C 3.519531 -42.398438 3.867188 -45.296875 4.171875 -48.390625 C 4.484375 -51.492188 5.175781 -54.285156 6.25 -56.765625 C 6.8125 -58.117188 7.78125 -59.078125 9.15625 -59.640625 C 10.539062 -60.203125 11.894531 -60.285156 13.21875 -59.890625 C 14.539062 -59.492188 15.398438 -58.507812 15.796875 -56.9375 C 16.472656 -54.34375 16.613281 -51.632812 16.21875 -48.8125 C 15.820312 -46 15.566406 -43.269531 15.453125 -40.625 C 15.398438 -37.414062 15.234375 -34.207031 14.953125 -31 C 14.671875 -27.789062 14.390625 -24.582031 14.109375 -21.375 C 14.722656 -21.9375 15.578125 -22.640625 16.671875 -23.484375 C 17.773438 -24.328125 18.957031 -25.097656 20.21875 -25.796875 C 21.488281 -26.503906 22.726562 -26.914062 23.9375 -27.03125 C 25.15625 -27.144531 26.210938 -26.722656 27.109375 -25.765625 C 28.128906 -24.691406 28.507812 -23.59375 28.25 -22.46875 C 28 -21.34375 27.394531 -20.242188 26.4375 -19.171875 C 25.476562 -18.097656 24.4375 -17.15625 23.3125 -16.34375 C 22.1875 -15.53125 21.226562 -14.894531 20.4375 -14.4375 C 20.78125 -14.050781 21.398438 -13.378906 22.296875 -12.421875 C 23.203125 -11.460938 24.144531 -10.375 25.125 -9.15625 C 26.113281 -7.945312 26.914062 -6.722656 27.53125 -5.484375 C 28.15625 -4.242188 28.410156 -3.128906 28.296875 -2.140625 C 28.179688 -1.160156 27.445312 -0.445312 26.09375 0 C 24.96875 0.394531 23.785156 0.1875 22.546875 -0.625 C 21.304688 -1.445312 20.109375 -2.5625 18.953125 -3.96875 C 17.804688 -5.375 16.796875 -6.78125 15.921875 -8.1875 C 15.046875 -9.601562 14.441406 -10.703125 14.109375 -11.484375 C 13.941406 -11.429688 13.785156 -11.050781 13.640625 -10.34375 C 13.503906 -9.644531 13.363281 -8.84375 13.21875 -7.9375 C 13.082031 -7.039062 12.957031 -6.210938 12.84375 -5.453125 C 12.726562 -4.691406 12.640625 -4.195312 12.578125 -3.96875 C 12.296875 -2.894531 11.914062 -1.8125 11.4375 -0.71875 C 10.96875 0.375 10.253906 1.234375 9.296875 1.859375 Z M 9.296875 1.859375 "/></g></g></g><g fill="#ffffff" fill-opacity="1"><g transform="translate(211.717891, 239.531483)"><g><path d="M 11.3125 -3.796875 C 8.664062 -4.253906 6.566406 -5.296875 5.015625 -6.921875 C 3.472656 -8.554688 2.421875 -10.523438 1.859375 -12.828125 C 1.296875 -15.140625 1.140625 -17.5625 1.390625 -20.09375 C 1.648438 -22.632812 2.253906 -25.046875 3.203125 -27.328125 C 4.160156 -29.609375 5.375 -31.535156 6.84375 -33.109375 C 8.695312 -35.078125 11.046875 -36.539062 13.890625 -37.5 C 16.734375 -38.457031 19.507812 -38.539062 22.21875 -37.75 C 23.625 -37.363281 24.914062 -36.648438 26.09375 -35.609375 C 27.28125 -34.566406 28.210938 -33.367188 28.890625 -32.015625 C 29.566406 -30.660156 29.847656 -29.265625 29.734375 -27.828125 C 29.617188 -26.390625 29 -25.023438 27.875 -23.734375 C 26.800781 -22.554688 25.476562 -21.679688 23.90625 -21.109375 C 22.332031 -20.546875 20.785156 -20.125 19.265625 -19.84375 C 18.242188 -19.675781 17.195312 -19.5625 16.125 -19.5 C 15.0625 -19.445312 14.148438 -19.179688 13.390625 -18.703125 C 12.628906 -18.222656 12.191406 -17.253906 12.078125 -15.796875 C 11.960938 -14.273438 12.203125 -13.34375 12.796875 -13 C 13.390625 -12.664062 14.148438 -12.707031 15.078125 -13.125 C 16.003906 -13.550781 16.972656 -14.128906 17.984375 -14.859375 C 19.003906 -15.597656 19.9375 -16.300781 20.78125 -16.96875 C 21.625 -17.644531 22.210938 -18.070312 22.546875 -18.25 C 24.347656 -19.03125 25.644531 -19.082031 26.4375 -18.40625 C 27.226562 -17.738281 27.648438 -16.710938 27.703125 -15.328125 C 27.765625 -13.953125 27.554688 -12.554688 27.078125 -11.140625 C 26.597656 -9.734375 25.988281 -8.664062 25.25 -7.9375 C 23.507812 -6.195312 21.359375 -4.972656 18.796875 -4.265625 C 16.234375 -3.554688 13.738281 -3.398438 11.3125 -3.796875 Z M 16.890625 -25.171875 C 17.453125 -25.003906 18.179688 -25.019531 19.078125 -25.21875 C 19.984375 -25.414062 20.742188 -25.753906 21.359375 -26.234375 C 21.984375 -26.710938 22.15625 -27.234375 21.875 -27.796875 C 20.800781 -27.960938 19.8125 -27.816406 18.90625 -27.359375 C 18.007812 -26.910156 17.335938 -26.179688 16.890625 -25.171875 Z M 16.890625 -25.171875 "/></g></g></g><g fill="#ffffff" fill-opacity="1"><g transform="translate(241.446606, 239.531483)"><g><path d="M 22.390625 6 C 21.148438 7.007812 20.101562 7.300781 19.25 6.875 C 18.40625 6.457031 17.71875 5.671875 17.1875 4.515625 C 16.65625 3.359375 16.25 2.117188 15.96875 0.796875 C 15.6875 -0.523438 15.457031 -1.609375 15.28125 -2.453125 C 14.613281 -6.503906 14.09375 -10.597656 13.71875 -14.734375 C 13.351562 -18.878906 13.085938 -23.003906 12.921875 -27.109375 C 12.804688 -28.972656 12.816406 -30.929688 12.953125 -32.984375 C 13.097656 -35.035156 13.128906 -36.863281 13.046875 -38.46875 C 12.960938 -40.082031 12.554688 -41.140625 11.828125 -41.640625 L 8.1875 -42.234375 C 7.34375 -42.347656 6.484375 -42.488281 5.609375 -42.65625 C 4.742188 -42.820312 3.914062 -43.078125 3.125 -43.421875 C 1.71875 -44.097656 0.742188 -45.066406 0.203125 -46.328125 C -0.328125 -47.597656 0 -48.9375 1.1875 -50.34375 C 2.082031 -51.414062 3.289062 -52.101562 4.8125 -52.40625 C 6.332031 -52.71875 7.738281 -52.929688 9.03125 -53.046875 L 13.859375 -54.5625 C 14.242188 -55.1875 14.453125 -56.046875 14.484375 -57.140625 C 14.515625 -58.242188 14.585938 -59.160156 14.703125 -59.890625 C 14.984375 -61.410156 15.375 -63.039062 15.875 -64.78125 C 16.382812 -66.53125 17.285156 -67.941406 18.578125 -69.015625 C 19.703125 -70.140625 20.671875 -70.519531 21.484375 -70.15625 C 22.304688 -69.789062 23 -69 23.5625 -67.78125 C 24.125 -66.570312 24.613281 -65.191406 25.03125 -63.640625 C 25.457031 -62.097656 25.828125 -60.632812 26.140625 -59.25 C 26.453125 -57.875 26.722656 -56.875 26.953125 -56.25 C 27.234375 -55.582031 27.414062 -55.117188 27.5 -54.859375 C 27.582031 -54.609375 27.765625 -54.46875 28.046875 -54.4375 C 28.328125 -54.40625 28.914062 -54.363281 29.8125 -54.3125 C 31.507812 -54.195312 32.78125 -54.097656 33.625 -54.015625 C 34.46875 -53.929688 35.171875 -53.816406 35.734375 -53.671875 C 36.296875 -53.535156 37.023438 -53.300781 37.921875 -52.96875 C 39.046875 -52.570312 40.226562 -51.976562 41.46875 -51.1875 C 42.707031 -50.394531 43.5 -49.351562 43.84375 -48.0625 C 44.238281 -46.769531 44 -45.695312 43.125 -44.84375 C 42.25 -44 41.160156 -43.363281 39.859375 -42.9375 C 38.566406 -42.519531 37.441406 -42.203125 36.484375 -41.984375 L 29.5625 -41.140625 C 28.882812 -40.972656 28.472656 -40.914062 28.328125 -40.96875 C 28.191406 -41.019531 28.140625 -41.019531 28.171875 -40.96875 C 28.203125 -40.914062 28.078125 -40.601562 27.796875 -40.03125 L 27.796875 -37.078125 C 27.796875 -32.128906 27.695312 -27.132812 27.5 -22.09375 C 27.300781 -17.050781 26.921875 -12.023438 26.359375 -7.015625 C 26.179688 -5.773438 25.992188 -4.296875 25.796875 -2.578125 C 25.609375 -0.859375 25.257812 0.785156 24.75 2.359375 C 24.238281 3.941406 23.453125 5.15625 22.390625 6 Z M 22.390625 6 "/></g></g></g><g fill="#f82b45" fill-opacity="1"><g transform="translate(55.371694, 235.798489)"><g><path d="M 47.140625 -0.421875 C 45.953125 -0.867188 45.085938 -1.628906 44.546875 -2.703125 C 44.015625 -3.773438 43.664062 -4.957031 43.5 -6.25 C 43.332031 -7.539062 43.21875 -8.695312 43.15625 -9.71875 C 42.9375 -12.863281 42.835938 -16.015625 42.859375 -19.171875 C 42.890625 -22.328125 42.679688 -25.484375 42.234375 -28.640625 C 41.160156 -27.566406 39.929688 -26.269531 38.546875 -24.75 C 37.171875 -23.226562 35.679688 -21.890625 34.078125 -20.734375 C 32.472656 -19.578125 30.828125 -19.054688 29.140625 -19.171875 C 27.785156 -19.285156 26.585938 -19.789062 25.546875 -20.6875 C 24.503906 -21.59375 23.546875 -22.71875 22.671875 -24.0625 C 21.804688 -25.414062 21.035156 -26.78125 20.359375 -28.15625 C 19.679688 -29.539062 19.035156 -30.710938 18.421875 -31.671875 C 17.460938 -29.535156 16.882812 -27.226562 16.6875 -24.75 C 16.488281 -22.269531 16.359375 -19.765625 16.296875 -17.234375 C 16.242188 -14.703125 15.988281 -12.222656 15.53125 -9.796875 C 15.082031 -7.378906 14.097656 -5.15625 12.578125 -3.125 C 11.234375 -1.320312 9.660156 -0.421875 7.859375 -0.421875 C 6.054688 -0.421875 4.503906 -1.347656 3.203125 -3.203125 C 2.253906 -4.671875 1.679688 -6.273438 1.484375 -8.015625 C 1.285156 -9.765625 1.285156 -11.554688 1.484375 -13.390625 C 1.679688 -15.222656 1.863281 -16.925781 2.03125 -18.5 C 2.363281 -21.875 2.769531 -25.25 3.25 -28.625 C 3.726562 -32.007812 4.222656 -35.363281 4.734375 -38.6875 C 5.015625 -40.65625 5.320312 -42.765625 5.65625 -45.015625 C 6 -47.273438 6.816406 -49.21875 8.109375 -50.84375 C 9.578125 -52.644531 11.125 -53.671875 12.75 -53.921875 C 14.382812 -54.179688 16.03125 -53.898438 17.6875 -53.078125 C 19.351562 -52.265625 20.929688 -51.15625 22.421875 -49.75 C 23.921875 -48.34375 25.285156 -46.863281 26.515625 -45.3125 C 27.753906 -43.769531 28.769531 -42.40625 29.5625 -41.21875 C 30.289062 -42.40625 31.21875 -43.800781 32.34375 -45.40625 C 33.476562 -47.007812 34.734375 -48.570312 36.109375 -50.09375 C 37.492188 -51.613281 38.957031 -52.878906 40.5 -53.890625 C 42.050781 -54.898438 43.65625 -55.421875 45.3125 -55.453125 C 46.976562 -55.484375 48.65625 -54.765625 50.34375 -53.296875 C 51.414062 -52.398438 52.191406 -51.289062 52.671875 -49.96875 C 53.148438 -48.644531 53.5 -47.273438 53.71875 -45.859375 C 53.945312 -44.453125 54.171875 -43.101562 54.390625 -41.8125 C 54.960938 -38.71875 55.441406 -35.609375 55.828125 -32.484375 C 56.222656 -29.359375 56.476562 -26.21875 56.59375 -23.0625 C 56.644531 -22.269531 56.6875 -21.082031 56.71875 -19.5 C 56.75 -17.925781 56.707031 -16.179688 56.59375 -14.265625 C 56.476562 -12.359375 56.25 -10.460938 55.90625 -8.578125 C 55.570312 -6.691406 55.050781 -5.015625 54.34375 -3.546875 C 53.644531 -2.078125 52.71875 -1.035156 51.5625 -0.421875 C 50.414062 0.191406 48.941406 0.191406 47.140625 -0.421875 Z M 47.140625 -0.421875 "/></g></g></g><g fill="#f82b45" fill-opacity="1"><g transform="translate(112.126661, 235.798489)"><g><path d="M 26.953125 -0.078125 C 25.992188 -0.304688 25.257812 -0.859375 24.75 -1.734375 C 24.238281 -2.609375 23.882812 -3.617188 23.6875 -4.765625 C 23.488281 -5.921875 23.363281 -7.046875 23.3125 -8.140625 C 23.257812 -9.242188 23.234375 -10.132812 23.234375 -10.8125 C 22.046875 -9.175781 20.535156 -7.78125 18.703125 -6.625 C 16.878906 -5.476562 14.96875 -4.75 12.96875 -4.4375 C 10.96875 -4.125 9.09375 -4.359375 7.34375 -5.140625 C 5.601562 -5.929688 4.171875 -7.425781 3.046875 -9.625 C 1.972656 -11.882812 1.394531 -14.304688 1.3125 -16.890625 C 1.226562 -19.484375 1.550781 -22.0625 2.28125 -24.625 C 3.007812 -27.1875 3.992188 -29.453125 5.234375 -31.421875 C 6.421875 -33.222656 7.859375 -34.828125 9.546875 -36.234375 C 11.234375 -37.640625 13.0625 -38.640625 15.03125 -39.234375 C 17 -39.828125 18.910156 -39.828125 20.765625 -39.234375 C 22.628906 -38.640625 24.320312 -37.273438 25.84375 -35.140625 C 26.75 -33.898438 27.492188 -32.800781 28.078125 -31.84375 C 28.671875 -30.882812 29.125 -29.867188 29.4375 -28.796875 C 29.75 -27.734375 29.929688 -26.382812 29.984375 -24.75 L 30.5 -8.875 C 30.5 -8.25 30.523438 -7.398438 30.578125 -6.328125 C 30.628906 -5.265625 30.582031 -4.210938 30.4375 -3.171875 C 30.300781 -2.128906 29.96875 -1.296875 29.4375 -0.671875 C 28.90625 -0.0546875 28.078125 0.140625 26.953125 -0.078125 Z M 16.21875 -19.171875 C 16.894531 -19.171875 17.597656 -19.550781 18.328125 -20.3125 C 19.054688 -21.070312 19.71875 -21.914062 20.3125 -22.84375 C 20.90625 -23.78125 21.285156 -24.5 21.453125 -25 C 22.015625 -26.238281 22.082031 -27.335938 21.65625 -28.296875 C 21.238281 -29.253906 20.351562 -29.453125 19 -28.890625 C 18.101562 -28.546875 17.234375 -27.753906 16.390625 -26.515625 C 15.546875 -25.285156 14.953125 -24.21875 14.609375 -23.3125 C 14.328125 -22.414062 14.210938 -21.515625 14.265625 -20.609375 C 14.328125 -19.710938 14.976562 -19.234375 16.21875 -19.171875 Z M 16.21875 -19.171875 "/></g></g></g><g fill="#f82b45" fill-opacity="1"><g transform="translate(142.784397, 235.798489)"><g><path d="M 4.734375 -2.953125 C 3.429688 -5.203125 2.515625 -7.722656 1.984375 -10.515625 C 1.453125 -13.304688 1.210938 -16.191406 1.265625 -19.171875 C 1.316406 -22.160156 1.523438 -25.085938 1.890625 -27.953125 C 2.265625 -30.828125 2.703125 -33.503906 3.203125 -35.984375 C 3.378906 -36.878906 3.617188 -37.929688 3.921875 -39.140625 C 4.234375 -40.359375 4.671875 -41.5 5.234375 -42.5625 C 5.796875 -43.632812 6.554688 -44.367188 7.515625 -44.765625 C 8.703125 -45.273438 9.742188 -45.273438 10.640625 -44.765625 C 11.546875 -44.265625 12.304688 -43.476562 12.921875 -42.40625 C 13.546875 -41.332031 14.039062 -40.21875 14.40625 -39.0625 C 14.769531 -37.90625 15.035156 -36.90625 15.203125 -36.0625 C 16.109375 -37.582031 17.175781 -39.003906 18.40625 -40.328125 C 19.644531 -41.648438 21.066406 -42.648438 22.671875 -43.328125 C 24.285156 -44.003906 26.019531 -44.117188 27.875 -43.671875 C 29.507812 -43.273438 31 -42.457031 32.34375 -41.21875 C 33.695312 -39.976562 34.820312 -38.554688 35.71875 -36.953125 C 36.625 -35.347656 37.160156 -33.726562 37.328125 -32.09375 C 37.441406 -30.800781 37.203125 -29.617188 36.609375 -28.546875 C 36.023438 -27.484375 35.03125 -26.894531 33.625 -26.78125 C 32.320312 -26.71875 31.304688 -27.09375 30.578125 -27.90625 C 29.847656 -28.726562 29.003906 -29.476562 28.046875 -30.15625 C 26.578125 -31.28125 25.222656 -31.703125 23.984375 -31.421875 C 22.742188 -31.140625 21.628906 -30.476562 20.640625 -29.4375 C 19.660156 -28.394531 18.773438 -27.195312 17.984375 -25.84375 C 17.140625 -24.4375 16.394531 -22.972656 15.75 -21.453125 C 15.101562 -19.929688 14.640625 -18.351562 14.359375 -16.71875 C 14.023438 -14.914062 13.800781 -13.097656 13.6875 -11.265625 C 13.570312 -9.441406 13.375 -7.628906 13.09375 -5.828125 C 12.8125 -4.140625 12.21875 -2.71875 11.3125 -1.5625 C 10.414062 -0.40625 9.375 0.128906 8.1875 0.046875 C 7.007812 -0.0351562 5.859375 -1.035156 4.734375 -2.953125 Z M 4.734375 -2.953125 "/></g></g></g><g fill="#f82b45" fill-opacity="1"><g transform="translate(179.691957, 235.798489)"><g><path d="M 9.296875 1.859375 C 7.597656 2.585938 6.269531 2.828125 5.3125 2.578125 C 4.363281 2.328125 3.660156 1.789062 3.203125 0.96875 C 2.753906 0.15625 2.445312 -0.769531 2.28125 -1.8125 C 2.113281 -2.851562 1.972656 -3.742188 1.859375 -4.484375 C 1.179688 -10.335938 1.039062 -16.21875 1.4375 -22.125 C 1.832031 -28.039062 2.394531 -33.898438 3.125 -39.703125 C 3.519531 -42.398438 3.867188 -45.296875 4.171875 -48.390625 C 4.484375 -51.492188 5.175781 -54.285156 6.25 -56.765625 C 6.8125 -58.117188 7.78125 -59.078125 9.15625 -59.640625 C 10.539062 -60.203125 11.894531 -60.285156 13.21875 -59.890625 C 14.539062 -59.492188 15.398438 -58.507812 15.796875 -56.9375 C 16.472656 -54.34375 16.613281 -51.632812 16.21875 -48.8125 C 15.820312 -46 15.566406 -43.269531 15.453125 -40.625 C 15.398438 -37.414062 15.234375 -34.207031 14.953125 -31 C 14.671875 -27.789062 14.390625 -24.582031 14.109375 -21.375 C 14.722656 -21.9375 15.578125 -22.640625 16.671875 -23.484375 C 17.773438 -24.328125 18.957031 -25.097656 20.21875 -25.796875 C 21.488281 -26.503906 22.726562 -26.914062 23.9375 -27.03125 C 25.15625 -27.144531 26.210938 -26.722656 27.109375 -25.765625 C 28.128906 -24.691406 28.507812 -23.59375 28.25 -22.46875 C 28 -21.34375 27.394531 -20.242188 26.4375 -19.171875 C 25.476562 -18.097656 24.4375 -17.15625 23.3125 -16.34375 C 22.1875 -15.53125 21.226562 -14.894531 20.4375 -14.4375 C 20.78125 -14.050781 21.398438 -13.378906 22.296875 -12.421875 C 23.203125 -11.460938 24.144531 -10.375 25.125 -9.15625 C 26.113281 -7.945312 26.914062 -6.722656 27.53125 -5.484375 C 28.15625 -4.242188 28.410156 -3.128906 28.296875 -2.140625 C 28.179688 -1.160156 27.445312 -0.445312 26.09375 0 C 24.96875 0.394531 23.785156 0.1875 22.546875 -0.625 C 21.304688 -1.445312 20.109375 -2.5625 18.953125 -3.96875 C 17.804688 -5.375 16.796875 -6.78125 15.921875 -8.1875 C 15.046875 -9.601562 14.441406 -10.703125 14.109375 -11.484375 C 13.941406 -11.429688 13.785156 -11.050781 13.640625 -10.34375 C 13.503906 -9.644531 13.363281 -8.84375 13.21875 -7.9375 C 13.082031 -7.039062 12.957031 -6.210938 12.84375 -5.453125 C 12.726562 -4.691406 12.640625 -4.195312 12.578125 -3.96875 C 12.296875 -2.894531 11.914062 -1.8125 11.4375 -0.71875 C 10.96875 0.375 10.253906 1.234375 9.296875 1.859375 Z M 9.296875 1.859375 "/></g></g></g><g fill="#f82b45" fill-opacity="1"><g transform="translate(207.984897, 235.798489)"><g><path d="M 11.3125 -3.796875 C 8.664062 -4.253906 6.566406 -5.296875 5.015625 -6.921875 C 3.472656 -8.554688 2.421875 -10.523438 1.859375 -12.828125 C 1.296875 -15.140625 1.140625 -17.5625 1.390625 -20.09375 C 1.648438 -22.632812 2.253906 -25.046875 3.203125 -27.328125 C 4.160156 -29.609375 5.375 -31.535156 6.84375 -33.109375 C 8.695312 -35.078125 11.046875 -36.539062 13.890625 -37.5 C 16.734375 -38.457031 19.507812 -38.539062 22.21875 -37.75 C 23.625 -37.363281 24.914062 -36.648438 26.09375 -35.609375 C 27.28125 -34.566406 28.210938 -33.367188 28.890625 -32.015625 C 29.566406 -30.660156 29.847656 -29.265625 29.734375 -27.828125 C 29.617188 -26.390625 29 -25.023438 27.875 -23.734375 C 26.800781 -22.554688 25.476562 -21.679688 23.90625 -21.109375 C 22.332031 -20.546875 20.785156 -20.125 19.265625 -19.84375 C 18.242188 -19.675781 17.195312 -19.5625 16.125 -19.5 C 15.0625 -19.445312 14.148438 -19.179688 13.390625 -18.703125 C 12.628906 -18.222656 12.191406 -17.253906 12.078125 -15.796875 C 11.960938 -14.273438 12.203125 -13.34375 12.796875 -13 C 13.390625 -12.664062 14.148438 -12.707031 15.078125 -13.125 C 16.003906 -13.550781 16.972656 -14.128906 17.984375 -14.859375 C 19.003906 -15.597656 19.9375 -16.300781 20.78125 -16.96875 C 21.625 -17.644531 22.210938 -18.070312 22.546875 -18.25 C 24.347656 -19.03125 25.644531 -19.082031 26.4375 -18.40625 C 27.226562 -17.738281 27.648438 -16.710938 27.703125 -15.328125 C 27.765625 -13.953125 27.554688 -12.554688 27.078125 -11.140625 C 26.597656 -9.734375 25.988281 -8.664062 25.25 -7.9375 C 23.507812 -6.195312 21.359375 -4.972656 18.796875 -4.265625 C 16.234375 -3.554688 13.738281 -3.398438 11.3125 -3.796875 Z M 16.890625 -25.171875 C 17.453125 -25.003906 18.179688 -25.019531 19.078125 -25.21875 C 19.984375 -25.414062 20.742188 -25.753906 21.359375 -26.234375 C 21.984375 -26.710938 22.15625 -27.234375 21.875 -27.796875 C 20.800781 -27.960938 19.8125 -27.816406 18.90625 -27.359375 C 18.007812 -26.910156 17.335938 -26.179688 16.890625 -25.171875 Z M 16.890625 -25.171875 "/></g></g></g><g fill="#f82b45" fill-opacity="1"><g transform="translate(237.713613, 235.798489)"><g><path d="M 22.390625 6 C 21.148438 7.007812 20.101562 7.300781 19.25 6.875 C 18.40625 6.457031 17.71875 5.671875 17.1875 4.515625 C 16.65625 3.359375 16.25 2.117188 15.96875 0.796875 C 15.6875 -0.523438 15.457031 -1.609375 15.28125 -2.453125 C 14.613281 -6.503906 14.09375 -10.597656 13.71875 -14.734375 C 13.351562 -18.878906 13.085938 -23.003906 12.921875 -27.109375 C 12.804688 -28.972656 12.816406 -30.929688 12.953125 -32.984375 C 13.097656 -35.035156 13.128906 -36.863281 13.046875 -38.46875 C 12.960938 -40.082031 12.554688 -41.140625 11.828125 -41.640625 L 8.1875 -42.234375 C 7.34375 -42.347656 6.484375 -42.488281 5.609375 -42.65625 C 4.742188 -42.820312 3.914062 -43.078125 3.125 -43.421875 C 1.71875 -44.097656 0.742188 -45.066406 0.203125 -46.328125 C -0.328125 -47.597656 0 -48.9375 1.1875 -50.34375 C 2.082031 -51.414062 3.289062 -52.101562 4.8125 -52.40625 C 6.332031 -52.71875 7.738281 -52.929688 9.03125 -53.046875 L 13.859375 -54.5625 C 14.242188 -55.1875 14.453125 -56.046875 14.484375 -57.140625 C 14.515625 -58.242188 14.585938 -59.160156 14.703125 -59.890625 C 14.984375 -61.410156 15.375 -63.039062 15.875 -64.78125 C 16.382812 -66.53125 17.285156 -67.941406 18.578125 -69.015625 C 19.703125 -70.140625 20.671875 -70.519531 21.484375 -70.15625 C 22.304688 -69.789062 23 -69 23.5625 -67.78125 C 24.125 -66.570312 24.613281 -65.191406 25.03125 -63.640625 C 25.457031 -62.097656 25.828125 -60.632812 26.140625 -59.25 C 26.453125 -57.875 26.722656 -56.875 26.953125 -56.25 C 27.234375 -55.582031 27.414062 -55.117188 27.5 -54.859375 C 27.582031 -54.609375 27.765625 -54.46875 28.046875 -54.4375 C 28.328125 -54.40625 28.914062 -54.363281 29.8125 -54.3125 C 31.507812 -54.195312 32.78125 -54.097656 33.625 -54.015625 C 34.46875 -53.929688 35.171875 -53.816406 35.734375 -53.671875 C 36.296875 -53.535156 37.023438 -53.300781 37.921875 -52.96875 C 39.046875 -52.570312 40.226562 -51.976562 41.46875 -51.1875 C 42.707031 -50.394531 43.5 -49.351562 43.84375 -48.0625 C 44.238281 -46.769531 44 -45.695312 43.125 -44.84375 C 42.25 -44 41.160156 -43.363281 39.859375 -42.9375 C 38.566406 -42.519531 37.441406 -42.203125 36.484375 -41.984375 L 29.5625 -41.140625 C 28.882812 -40.972656 28.472656 -40.914062 28.328125 -40.96875 C 28.191406 -41.019531 28.140625 -41.019531 28.171875 -40.96875 C 28.203125 -40.914062 28.078125 -40.601562 27.796875 -40.03125 L 27.796875 -37.078125 C 27.796875 -32.128906 27.695312 -27.132812 27.5 -22.09375 C 27.300781 -17.050781 26.921875 -12.023438 26.359375 -7.015625 C 26.179688 -5.773438 25.992188 -4.296875 25.796875 -2.578125 C 25.609375 -0.859375 25.257812 0.785156 24.75 2.359375 C 24.238281 3.941406 23.453125 5.15625 22.390625 6 Z M 22.390625 6 "/></g></g></g><path fill="#4db749" d="M 302.039062 214.175781 C 301.773438 213.050781 301.214844 211.996094 300.34375 211.132812 L 299.125 209.921875 C 298.105469 208.910156 296.828125 208.324219 295.46875 208.128906 L 295.476562 207.953125 C 295.476562 207.953125 296.675781 197.234375 301.792969 203.253906 C 301.792969 203.253906 307.730469 198.828125 307.320312 205.273438 C 307.320312 205.273438 307.101562 206.628906 306.554688 208.15625 C 306.554688 208.15625 312.019531 208.605469 309.257812 211.671875 C 307.3125 213.820312 303.894531 214.164062 302.039062 214.175781 Z M 302.039062 214.175781 " fill-opacity="1" fill-rule="nonzero"/><path fill="#eb7d27" d="M 298.550781 222.535156 L 293.738281 225.890625 L 292.925781 226.457031 L 285.027344 231.960938 L 284.4375 232.371094 L 272.59375 240.625 C 270.285156 242.234375 267.792969 239.757812 269.410156 237.46875 L 274.570312 230.171875 L 275.089844 229.433594 L 280.523438 221.746094 L 281.203125 220.789062 L 286.066406 213.898438 L 286.886719 212.734375 L 287.625 211.695312 C 289.535156 208.996094 292.667969 207.722656 295.460938 208.121094 C 296.816406 208.316406 298.09375 208.90625 299.113281 209.914062 L 300.335938 211.128906 C 301.207031 211.992188 301.765625 213.042969 302.027344 214.171875 C 302.449219 215.953125 302.132812 217.929688 301.160156 219.660156 C 300.976562 219.984375 300.769531 220.308594 300.53125 220.617188 C 300.003906 221.339844 299.335938 221.984375 298.550781 222.535156 Z M 298.550781 222.535156 " fill-opacity="1" fill-rule="nonzero"/><path fill="#b54d26" d="M 300.542969 220.621094 L 295.457031 214.765625 L 301.171875 219.664062 C 300.984375 219.996094 300.777344 220.3125 300.542969 220.621094 Z M 300.542969 220.621094 " fill-opacity="1" fill-rule="nonzero"/><path fill="#b54d26" d="M 293.738281 225.890625 L 292.929688 226.453125 L 288.648438 221.527344 Z M 293.738281 225.890625 " fill-opacity="1" fill-rule="nonzero"/><path fill="#b54d26" d="M 285.035156 231.957031 L 284.445312 232.371094 L 281.335938 228.789062 Z M 285.035156 231.957031 " fill-opacity="1" fill-rule="nonzero"/><path fill="#b54d26" d="M 293.257812 220.054688 L 286.074219 213.902344 L 286.898438 212.738281 Z M 293.257812 220.054688 " fill-opacity="1" fill-rule="nonzero"/><path fill="#b54d26" d="M 286.445312 226.8125 L 280.53125 221.746094 L 281.207031 220.789062 Z M 286.445312 226.8125 " fill-opacity="1" fill-rule="nonzero"/><path fill="#b54d26" d="M 279.136719 234.078125 L 274.574219 230.167969 L 275.097656 229.433594 Z M 279.136719 234.078125 " fill-opacity="1" fill-rule="nonzero"/><g clip-path="url(#2d09d97e0f)"><g clip-path="url(#298aff407a)"><g clip-path="url(#b3934f8c58)"><g clip-path="url(#f0f06bea6b)"><path fill="#604266" d="M 73.039062 176.480469 C 69.472656 175.980469 65.761719 174.226562 63.722656 171.335938 C 59.777344 165.738281 62.265625 155.84375 68.664062 153.140625 C 71.808594 151.816406 74.792969 150.984375 77.410156 148.601562 C 80.765625 145.542969 83.089844 141.386719 85.03125 137.3125 C 88.039062 131 97.714844 136.964844 96.800781 141.320312 C 94.730469 151.171875 93.554688 162.082031 87.144531 170.257812 C 84.308594 173.875 80.171875 176.46875 75.5625 176.617188 C 74.746094 176.644531 73.898438 176.597656 73.039062 176.480469 " fill-opacity="1" fill-rule="nonzero"/></g></g></g></g><g clip-path="url(#1ee89641ea)"><g clip-path="url(#ffcc9ef600)"><g clip-path="url(#8cb9d11b1c)"><g clip-path="url(#2692e5259c)"><path fill="#afdc4d" d="M 91.339844 140.6875 C 90.964844 141.164062 90.015625 141.945312 89.484375 142.21875 C 88.769531 142.582031 86.480469 142.984375 86.332031 141.941406 C 86.269531 141.503906 86.964844 141.347656 87.253906 141.019531 C 87.46875 140.769531 87.589844 140.449219 87.742188 140.152344 C 88.285156 139.089844 89.324219 138.292969 90.464844 138.085938 C 90.464844 138.085938 92.078125 137.722656 92.347656 138.121094 C 92.59375 138.484375 91.761719 140.148438 91.339844 140.6875 " fill-opacity="1" fill-rule="nonzero"/></g></g></g></g><g clip-path="url(#f94fc874cb)"><g clip-path="url(#81f2c874f3)"><g clip-path="url(#fcea522480)"><g clip-path="url(#f978df9bd4)"><path fill="#9ed751" d="M 87.640625 141.386719 C 87.859375 141.0625 88.109375 140.769531 88.371094 140.484375 C 88.628906 140.195312 88.917969 139.9375 89.214844 139.6875 C 89.519531 139.449219 89.839844 139.226562 90.191406 139.058594 C 90.539062 138.894531 90.921875 138.773438 91.308594 138.816406 C 90.925781 138.84375 90.574219 138.996094 90.246094 139.175781 C 89.917969 139.359375 89.605469 139.574219 89.320312 139.820312 C 89.019531 140.054688 88.738281 140.3125 88.460938 140.578125 C 88.183594 140.835938 87.914062 141.109375 87.640625 141.386719 " fill-opacity="1" fill-rule="nonzero"/></g></g></g></g><g clip-path="url(#d201cf9ed2)"><g clip-path="url(#14aa576331)"><g clip-path="url(#d7ff50ad4b)"><g clip-path="url(#9779ddcf0f)"><path fill="#afdc4d" d="M 89.792969 138.5 C 89.199219 138.570312 87.988281 138.445312 87.425781 138.253906 C 86.671875 138 84.777344 136.640625 85.398438 135.792969 C 85.660156 135.4375 86.257812 135.828125 86.691406 135.796875 C 87.015625 135.777344 87.320312 135.632812 87.636719 135.53125 C 88.757812 135.167969 90.039062 135.347656 90.988281 136.019531 C 90.988281 136.019531 92.367188 136.921875 92.285156 137.398438 C 92.207031 137.835938 90.464844 138.417969 89.792969 138.5 " fill-opacity="1" fill-rule="nonzero"/></g></g></g></g><g clip-path="url(#a3559e7107)"><g clip-path="url(#7826db9d51)"><g clip-path="url(#94404ddc77)"><g clip-path="url(#c66d143848)"><path fill="#9ed751" d="M 86.707031 136.339844 C 87.082031 136.265625 87.464844 136.234375 87.847656 136.21875 C 88.226562 136.203125 88.613281 136.226562 88.992188 136.261719 C 89.375 136.308594 89.753906 136.378906 90.117188 136.515625 C 90.476562 136.648438 90.832031 136.839844 91.074219 137.144531 C 90.785156 136.890625 90.433594 136.746094 90.078125 136.640625 C 89.71875 136.535156 89.347656 136.464844 88.972656 136.429688 C 88.601562 136.382812 88.222656 136.363281 87.847656 136.351562 C 87.46875 136.339844 87.089844 136.335938 86.707031 136.339844 " fill-opacity="1" fill-rule="nonzero"/></g></g></g></g><g clip-path="url(#69fa12583f)"><g clip-path="url(#cac70b2009)"><g clip-path="url(#447a4f9e5a)"><g clip-path="url(#d7babf4b7b)"><path fill="#afdc4d" d="M 89.566406 136.699219 C 89.097656 136.320312 88.332031 135.359375 88.070312 134.820312 C 87.714844 134.097656 87.332031 131.769531 88.359375 131.613281 C 88.789062 131.546875 88.933594 132.253906 89.261719 132.542969 C 89.507812 132.761719 89.820312 132.878906 90.109375 133.035156 C 91.15625 133.582031 91.929688 134.632812 92.128906 135.789062 C 92.128906 135.789062 92.472656 137.425781 92.082031 137.703125 C 91.722656 137.960938 90.089844 137.121094 89.566406 136.699219 " fill-opacity="1" fill-rule="nonzero"/></g></g></g></g><g clip-path="url(#df700bb701)"><g clip-path="url(#26e7a9ce6c)"><g clip-path="url(#0959bfd2b6)"><g clip-path="url(#c9b647bb2c)"><path fill="#9ed751" d="M 88.898438 132.941406 C 89.210938 133.160156 89.503906 133.410156 89.78125 133.675781 C 90.0625 133.941406 90.3125 134.230469 90.558594 134.527344 C 90.792969 134.835938 91.011719 135.160156 91.171875 135.515625 C 91.328125 135.871094 91.449219 136.265625 91.402344 136.652344 C 91.378906 136.265625 91.230469 135.910156 91.058594 135.574219 C 90.875 135.242188 90.667969 134.929688 90.429688 134.636719 C 90.199219 134.332031 89.949219 134.046875 89.691406 133.769531 C 89.433594 133.488281 89.167969 133.214844 88.898438 132.941406 " fill-opacity="1" fill-rule="nonzero"/></g></g></g></g><g clip-path="url(#c092cc73c7)"><g clip-path="url(#0bd85503ce)"><g clip-path="url(#bcd1863ab6)"><g clip-path="url(#ba5d836ed6)"><path fill="#afdc4d" d="M 93.847656 136.109375 C 94.441406 136.039062 95.65625 136.164062 96.21875 136.355469 C 96.972656 136.605469 98.863281 137.964844 98.242188 138.8125 C 97.980469 139.167969 97.386719 138.777344 96.953125 138.808594 C 96.625 138.832031 96.316406 138.972656 96.003906 139.078125 C 94.886719 139.4375 93.601562 139.261719 92.652344 138.585938 C 92.652344 138.585938 91.269531 137.683594 91.355469 137.207031 C 91.433594 136.769531 93.175781 136.1875 93.847656 136.109375 " fill-opacity="1" fill-rule="nonzero"/></g></g></g></g><g clip-path="url(#f56b25f6bf)"><g clip-path="url(#a5ae3ba57f)"><g clip-path="url(#864f7636de)"><g clip-path="url(#7b3d39a6e7)"><path fill="#9ed751" d="M 96.933594 138.265625 C 96.558594 138.339844 96.175781 138.371094 95.796875 138.386719 C 95.414062 138.402344 95.03125 138.378906 94.648438 138.34375 C 94.269531 138.296875 93.886719 138.226562 93.527344 138.09375 C 93.167969 137.957031 92.808594 137.769531 92.570312 137.460938 C 92.859375 137.714844 93.210938 137.859375 93.566406 137.964844 C 93.925781 138.074219 94.296875 138.140625 94.667969 138.175781 C 95.039062 138.226562 95.417969 138.242188 95.796875 138.253906 C 96.175781 138.269531 96.554688 138.269531 96.933594 138.265625 " fill-opacity="1" fill-rule="nonzero"/></g></g></g></g><g clip-path="url(#0780c67e65)"><g clip-path="url(#156713334f)"><g clip-path="url(#9a13f613a7)"><g clip-path="url(#e5dda875de)"><path fill="#afdc4d" d="M 94.078125 137.910156 C 94.546875 138.285156 95.308594 139.25 95.570312 139.785156 C 95.925781 140.511719 96.308594 142.835938 95.28125 142.992188 C 94.851562 143.058594 94.703125 142.355469 94.378906 142.0625 C 94.136719 141.84375 93.820312 141.726562 93.53125 141.574219 C 92.488281 141.023438 91.710938 139.976562 91.515625 138.816406 C 91.515625 138.816406 91.167969 137.179688 91.558594 136.902344 C 91.917969 136.648438 93.550781 137.484375 94.078125 137.910156 " fill-opacity="1" fill-rule="nonzero"/></g></g></g></g><g clip-path="url(#2f547af6c6)"><g clip-path="url(#afa4daccb7)"><g clip-path="url(#3e399aafc8)"><g clip-path="url(#8d05afa4ed)"><path fill="#9ed751" d="M 94.742188 141.664062 C 94.429688 141.445312 94.140625 141.195312 93.859375 140.933594 C 93.582031 140.667969 93.328125 140.375 93.085938 140.078125 C 92.847656 139.769531 92.628906 139.445312 92.472656 139.089844 C 92.3125 138.734375 92.191406 138.34375 92.238281 137.953125 C 92.261719 138.339844 92.410156 138.699219 92.585938 139.03125 C 92.765625 139.363281 92.976562 139.679688 93.214844 139.972656 C 93.441406 140.273438 93.695312 140.558594 93.949219 140.839844 C 94.207031 141.117188 94.472656 141.394531 94.742188 141.664062 " fill-opacity="1" fill-rule="nonzero"/></g></g></g></g><g clip-path="url(#e707ee4ed7)"><g clip-path="url(#f9958f07c7)"><g clip-path="url(#e820ce4c3f)"><g clip-path="url(#5511ee2001)"><path fill="#9ed751" d="M 91.035156 137.859375 C 91.035156 137.859375 92.363281 131.488281 94.746094 129.785156 C 95.121094 129.515625 94.394531 130.785156 96.144531 131.765625 C 96.144531 131.765625 92.375 136.011719 92.304688 138.574219 C 92.304688 138.574219 91.242188 138.957031 91.035156 137.859375 " fill-opacity="1" fill-rule="nonzero"/></g></g></g></g><g clip-path="url(#cf222ae566)"><g clip-path="url(#d70b1dd4cf)"><g clip-path="url(#f82ad3deee)"><g clip-path="url(#c3c6b4b630)"><path fill="#afdc4d" d="M 96.085938 131.808594 C 95.796875 132.011719 95.257812 131.730469 94.878906 131.175781 C 94.503906 130.621094 94.433594 130.007812 94.722656 129.800781 C 95.011719 129.597656 95.550781 129.882812 95.929688 130.4375 C 96.304688 130.992188 96.375 131.605469 96.085938 131.808594 " fill-opacity="1" fill-rule="nonzero"/></g></g></g></g></svg>